<svg version="1.1" xmlns="http://www.w3.org/2000/svg" viewBox="0 0 969.7114105806147 896.8433952732205" width="969.7114105806147" height="896.8433952732205">
  <!-- svg-source:excalidraw -->
  
  <defs>
    <style class="style-fonts">
      @font-face {
        font-family: "Virgil";
        src: url("https://excalidraw.com/Virgil.woff2");
      }
      @font-face {
        font-family: "Cascadia";
        src: url("https://excalidraw.com/Cascadia.woff2");
      }
    </style>
  </defs>
  <rect x="0" y="0" width="969.7114105806147" height="896.8433952732205" fill="#ffffff"></rect><g stroke-linecap="round"><g transform="translate(214.16660017996878 91.79960280753005) rotate(0 22.08528301162562 -0.3796063683784041)"><path d="M-1.32 0.76 C14.47 -3.81, 27.49 0.31, 44.05 -1.35 M1.4 1.05 C9.64 1.73, 22.17 -0.45, 45.49 -1.94" stroke="#000000" stroke-width="4" fill="none"></path></g></g><mask></mask><g transform="translate(135.69203993618294 66.52815902161217) rotate(0 35.54998779296875 21.600000000000023)"><text x="0" y="0" font-family="Virgil, Segoe UI Emoji" font-size="36px" fill="#000000" text-anchor="start" style="white-space: pre;" direction="ltr" dominant-baseline="text-before-edge">src </text></g><g transform="translate(311.93155223588155 99.7800459218306) rotate(0 95.84996795654297 21.600000000000023)"><text x="0" y="0" font-family="Virgil, Segoe UI Emoji" font-size="36px" fill="#000000" text-anchor="start" style="white-space: pre;" direction="ltr" dominant-baseline="text-before-edge">components</text></g><g transform="translate(317.9122388939784 470.87071162275697) rotate(0 49.517974853515625 21.599999999999994)"><text x="0" y="0" font-family="Virgil, Segoe UI Emoji" font-size="36px" fill="#000000" text-anchor="start" style="white-space: pre;" direction="ltr" dominant-baseline="text-before-edge">pages</text></g><g transform="translate(320.2323313503482 368.4549438079673) rotate(0 59.705963134765625 21.599999999999994)"><text x="0" y="0" font-family="Virgil, Segoe UI Emoji" font-size="36px" fill="#000000" text-anchor="start" style="white-space: pre;" direction="ltr" dominant-baseline="text-before-edge">helpers</text></g><g stroke-linecap="round"><g transform="translate(255.39856487879365 87.80925947848164) rotate(0 1.2444369215970994 258.84327824108203)"><path d="M-1.27 -0.72 C4.24 158.39, 5.07 316.4, 1.95 518.02 M0.13 -0.62 C-0.87 118.28, -0.58 238.17, 1.25 518.4" stroke="#000000" stroke-width="4" fill="none"></path></g></g><mask></mask><g stroke-linecap="round"><g transform="translate(262.0493806376703 125.0514288217995) rotate(0 23.655612826774927 -3.192236798298495)"><path d="M0.99 -3.15 C17.91 -1.14, 39.09 -4.65, 47.84 -6.47 M-0.53 0.08 C12.66 0.17, 24.26 -0.33, 45.24 -3.85" stroke="#000000" stroke-width="4" fill="none"></path></g></g><mask></mask><g stroke-linecap="round"><g transform="translate(498.80220163685954 141.01231505040062) rotate(0 1.6198647969209787 72.5991760267035)"><path d="M-0.11 0.11 C1.51 51.33, 1.31 110.96, 4.67 145.66 M-1.43 -0.46 C2.95 53.18, 4.25 103.13, 3.63 143.74" stroke="#000000" stroke-width="4" fill="none"></path></g></g><mask></mask><g stroke-linecap="round"><g transform="translate(502.79242319400987 176.92430906475317) rotate(0 19.531168413062915 -2.022457396774257)"><path d="M-3.86 -0.59 C14.68 1.34, 25.76 -2.28, 42.93 0.15 M0.77 0.15 C15.61 0.23, 28.66 -1.2, 39.29 -4.2" stroke="#000000" stroke-width="4" fill="none"></path></g></g><mask></mask><g stroke-linecap="round"><g transform="translate(505.4525303081441 290.90233867923087) rotate(0 21.26237138052784 -1.6397005930131172)"><path d="M-0.71 -3.2 C14.99 -1.59, 34.96 -5, 43.23 0.55 M0.3 -0.96 C12.28 -0.12, 25.66 -2.96, 40.91 -3.83" stroke="#000000" stroke-width="4" fill="none"></path></g></g><mask></mask><g transform="translate(550.6749601079152 147.66264372168496) rotate(0 128.12396240234375 21.600000000000023)"><text x="0" y="0" font-family="Virgil, Segoe UI Emoji" font-size="36px" fill="#000000" text-anchor="start" style="white-space: pre;" direction="ltr" dominant-baseline="text-before-edge">gratitud_page</text></g><g transform="translate(555.9952961080817 262.0490153219765) rotate(0 110.05194854736328 21.599999999999994)"><text x="0" y="0" font-family="Virgil, Segoe UI Emoji" font-size="36px" fill="#000000" text-anchor="start" style="white-space: pre;" direction="ltr" dominant-baseline="text-before-edge">survey_page</text></g><g stroke-linecap="round"><g transform="translate(818.0199262088829 172.93408750760295) rotate(0 -0.5396849202890053 34.86747244269799)"><path d="M0.04 3.25 C1.77 25.37, 2.36 49.16, -2.39 70.12 M0.14 -0.39 C-2.19 26.56, -0.58 50.15, -0.31 68.15" stroke="#000000" stroke-width="4" fill="none"></path></g></g><mask></mask><g stroke-linecap="round"><g transform="translate(822.0101477660332 238.10768597907474) rotate(0 9.890455212962479 -2.1093624519195373)"><path d="M-1.63 -2.85 C7.5 -1, 11.55 0.75, 21.41 -2.86 M-1.46 -1.98 C7.34 -1.35, 13.23 -4.31, 19.62 -3.22" stroke="#000000" stroke-width="4" fill="none"></path></g></g><mask></mask><g transform="translate(845.951477108935 206.18591352187218) rotate(0 56.879966735839844 21.600000000000023)"><text x="0" y="0" font-family="Virgil, Segoe UI Emoji" font-size="36px" fill="#000000" text-anchor="start" style="white-space: pre;" direction="ltr" dominant-baseline="text-before-edge"> file.js</text></g><g stroke-linecap="round"><g transform="translate(790.088375308831 288.6505126649615) rotate(0 -1.0104449652135372 34.062910191614435)"><path d="M-3.81 -0.34 C-2.66 17.95, -2.63 29.72, 1.79 68.47 M0.06 1.01 C-0.52 20.85, -1.49 43.95, 1.16 67.98" stroke="#000000" stroke-width="4" fill="none"></path></g></g><mask></mask><g stroke-linecap="round"><g transform="translate(788.7582608658147 353.8241111364332) rotate(0 8.556931374083149 -0.5500808864723012)"><path d="M0.45 -2.1 C3.99 -0.79, 8.4 -1.36, 16.66 -1.37 M1 0.75 C7.24 1.3, 12.56 0.92, 15.21 -0.12" stroke="#000000" stroke-width="4" fill="none"></path></g></g><mask></mask><g transform="translate(815.3598190947489 321.90233867923064) rotate(0 56.879966735839844 21.599999999999994)"><text x="0" y="0" font-family="Virgil, Segoe UI Emoji" font-size="36px" fill="#000000" text-anchor="start" style="white-space: pre;" direction="ltr" dominant-baseline="text-before-edge"> file.js</text></g><g stroke-linecap="round"><g transform="translate(266.6801524232553 395.0564411509524) rotate(0 22.514607350769552 -1.9290136056066274)"><path d="M3.48 0.11 C18.24 1.18, 31.42 -5.08, 44.73 -2.87 M-1.24 -1.26 C11.06 0.43, 20.14 -0.9, 46.27 -4.09" stroke="#000000" stroke-width="4" fill="none"></path></g></g><mask></mask><g stroke-linecap="round"><g transform="translate(449.5894285080399 400.37671626516965) rotate(0 -0.3543358286037801 15.828693141616384)"><path d="M-2.03 -3.88 C3.65 11.36, -0.97 23.24, -2.17 33.24 M1.46 1.76 C-1.37 10.57, 0.86 25.34, 0.94 35.54" stroke="#000000" stroke-width="4" fill="none"></path></g></g><mask></mask><g stroke-linecap="round"><g transform="translate(454.9097645082063 434.9585958365061) rotate(0 12.289338400335623 -1.6533471470539212)"><path d="M1.72 -2.53 C11.66 0.65, 15.89 0.26, 22.96 -4.76 M1.61 1.45 C6.86 -0.34, 15.17 -3.07, 22.19 -4.07" stroke="#000000" stroke-width="4" fill="none"></path></g></g><mask></mask><g transform="translate(486.83153696540876 405.6969913793869) rotate(0 56.879966735839844 21.599999999999994)"><text x="0" y="0" font-family="Virgil, Segoe UI Emoji" font-size="36px" fill="#000000" text-anchor="start" style="white-space: pre;" direction="ltr" dominant-baseline="text-before-edge"> file.js</text></g><g stroke-linecap="round"><g transform="translate(266.6801524232553 500.1322551939271) rotate(0 21.731939226816507 -0.6753193433917204)"><path d="M-3.27 0.94 C17.17 -2.4, 27.42 -4.28, 44.86 1.28 M-1 -1.83 C8.18 0.53, 16.77 0.07, 46.73 -2.63" stroke="#000000" stroke-width="4" fill="none"></path></g></g><mask></mask><g stroke-linecap="round"><g transform="translate(420.9780918362562 494.1615905224761) rotate(0 -0.6747079220726846 19.678719727709392)"><path d="M-1.74 2.89 C1.61 5.28, 0 13.94, 0.05 34.27 M-0.63 0.39 C-0.34 8.21, 1.04 15.46, -0.46 38.97" stroke="#000000" stroke-width="4" fill="none"></path></g></g><mask></mask><g stroke-linecap="round"><g transform="translate(422.32287394354717 530.0589168725542) rotate(0 10.304194147251224 5.164604459751615)"><path d="M3.79 2.52 C7.17 2.05, 18.05 2.21, 21.21 3.24 M-1.13 1.89 C8.95 3.82, 14.05 3.01, 21.74 8.44" stroke="#000000" stroke-width="4" fill="none"></path></g></g><mask></mask><g transform="translate(448.25943583692197 512.1029198653777) rotate(0 56.879966735839844 21.599999999999994)"><text x="0" y="0" font-family="Virgil, Segoe UI Emoji" font-size="36px" fill="#000000" text-anchor="start" style="white-space: pre;" direction="ltr" dominant-baseline="text-before-edge"> file.js</text></g><g stroke-linecap="round"><g transform="translate(266.6801524232553 607.868237236985) rotate(0 20.79848346808842 -1.67941847102081)"><path d="M0.51 -1.74 C13.25 0.98, 27.92 -0.29, 43.05 -1.3 M-1.63 0.22 C9.42 0.43, 19 -1.14, 43.23 -3.6" stroke="#000000" stroke-width="4" fill="none"></path></g></g><mask></mask><g transform="translate(323.2324531222466 579.936747222882) rotate(0 51.965980529785156 21.599999999999994)"><text x="0" y="0" font-family="Virgil, Segoe UI Emoji" font-size="36px" fill="#000000" text-anchor="start" style="white-space: pre;" direction="ltr" dominant-baseline="text-before-edge">state</text></g><g stroke-linecap="round"><g transform="translate(432.96354594388004 608.5332335725438) rotate(0 2.508865677439019 9.821535833089115)"><path d="M3.81 -3.74 C-2.04 4.63, 6.9 11.19, 3.42 21.8 M1.48 0.82 C-0.74 6.37, 2.84 10.48, 3.79 23.39" stroke="#000000" stroke-width="4" fill="none"></path></g></g><mask></mask><g stroke-linecap="round"><g transform="translate(444.93421061533104 633.8046773584617) rotate(0 13.635731079226161 0.3900633519515395)"><path d="M-3.77 1.46 C10.12 -2.58, 18.72 3.14, 29.12 0.03 M-1.46 -0.36 C10.71 0.8, 21.84 0.6, 31.04 -0.68" stroke="#000000" stroke-width="4" fill="none"></path></g></g><mask></mask><g transform="translate(465.5503147366412 610.5283443511188) rotate(0 56.879966735839844 21.599999999999994)"><text x="0" y="0" font-family="Virgil, Segoe UI Emoji" font-size="36px" fill="#000000" text-anchor="start" style="white-space: pre;" direction="ltr" dominant-baseline="text-before-edge"> file.js</text></g><g transform="translate(133.69686827165913 651.464784472596) rotate(0 50.165977478027344 21.599999999999994)"><text x="0" y="0" font-family="Virgil, Segoe UI Emoji" font-size="36px" fill="#000000" text-anchor="start" style="white-space: pre;" direction="ltr" dominant-baseline="text-before-edge">App.js</text></g><g transform="translate(140.32770094319312 720.2692156156018) rotate(0 82.67396545410156 21.599999999999998)"><text x="0" y="0" font-family="Virgil, Segoe UI Emoji" font-size="36px" fill="#000000" text-anchor="start" style="white-space: pre;" direction="ltr" dominant-baseline="text-before-edge">index.html</text></g><g transform="translate(143.97802961447758 783.9758623301107) rotate(0 63.16197204589844 21.599999999999998)"><text x="0" y="0" font-family="Virgil, Segoe UI Emoji" font-size="36px" fill="#000000" text-anchor="start" style="white-space: pre;" direction="ltr" dominant-baseline="text-before-edge">index.js</text></g><g transform="translate(148.57958784341167 843.6433952732204) rotate(0 86.25595092773438 21.599999999999994)"><text x="0" y="0" font-family="Virgil, Segoe UI Emoji" font-size="36px" fill="#000000" text-anchor="start" style="white-space: pre;" direction="ltr" dominant-baseline="text-before-edge">styles.css</text></g><g transform="translate(10 10) rotate(0 37.85399627685547 21.600000000000023)"><text x="0" y="0" font-family="Virgil, Segoe UI Emoji" font-size="36px" fill="#000000" text-anchor="start" style="white-space: pre;" direction="ltr" dominant-baseline="text-before-edge">root</text></g><g stroke-linecap="round"><g transform="translate(88.47437758593878 39.26163490009367) rotate(0 1.4619609563827893 411.9169678555932)"><path d="M-0.1 1.47 C-3.8 175.59, -1.23 350.1, 2.46 823.41 M-0.19 -0.06 C5.69 233.9, 6.35 467.93, 2.06 823.89" stroke="#000000" stroke-width="4" fill="none"></path></g></g><mask></mask><g stroke-linecap="round"><g transform="translate(92.46453825714002 93.80443114300579) rotate(0 15.766042501696006 -3.0812366124888513)"><path d="M-2.26 -3.37 C13.23 -0.77, 20.85 -6.32, 33.69 -2.41 M1.97 -1.97 C9.1 -2.28, 20.99 -3.04, 33.79 -4.19" stroke="#000000" stroke-width="4" fill="none"></path></g></g><mask></mask><g stroke-linecap="round"><g transform="translate(95.12470625722324 669.7166713728144) rotate(0 21.107414690313817 -1.473981342278421)"><path d="M3.38 -3.44 C14.11 0.06, 28.39 -2.03, 40.67 -3.96 M1.54 -0.85 C6.74 0.62, 16.18 -0.18, 38.5 1.01" stroke="#000000" stroke-width="4" fill="none"></path></g></g><mask></mask><g stroke-linecap="round"><g transform="translate(97.78487425730646 734.8903307302352) rotate(0 18.149711296349267 2.54728054287488)"><path d="M-3.02 2.53 C13.83 0.44, 21.02 2.15, 39.32 2.68 M1.16 1.14 C9.1 0.84, 19.63 2.23, 35.9 4" stroke="#000000" stroke-width="4" fill="none"></path></g></g><mask></mask><g stroke-linecap="round"><g transform="translate(96.45482070023934 800.0638683157579) rotate(0 17.272155191026684 -0.6267814396311664)"><path d="M-2.92 1.41 C7.73 3.28, 13.15 2.11, 33.61 -3.49 M0.89 -0.3 C11.74 2.1, 20.12 -1.33, 37.46 -0.87" stroke="#000000" stroke-width="4" fill="none"></path></g></g><mask></mask><g stroke-linecap="round"><g transform="translate(95.12470625722324 857.2570845588782) rotate(0 18.406343423119267 1.2301451471843947)"><path d="M-3.22 1.11 C7.6 3.27, 14.58 4.08, 40.04 -0.39 M-1.76 0.9 C9.36 2.04, 20.44 0.32, 38.46 0.86" stroke="#000000" stroke-width="4" fill="none"></path></g></g><mask></mask></svg>